Coordinates
version=1
nRows=16
nColumns=22
inDegrees=yes

Units are S.I. units (second, meters, Newtons, ...)
If the header above contains a line with 'inDegrees', this indicates whether rotational values are in degrees (yes) or radians (no).

endheader
time	pelvis_tilt	pelvis_list	pelvis_rotation	pelvis_tx	pelvis_ty	pelvis_tz	hip_flexion_r	hip_adduction_r	hip_rotation_r	knee_angle_r	ankle_angle_r	subtalar_angle_r	hip_flexion_l	hip_adduction_l	hip_rotation_l	knee_angle_l	ankle_angle_l	subtalar_angle_l	lumbar_extension	lumbar_bending	lumbar_rotation
      5.89000000	     -7.24998878	     -3.48695082	    318.89117122	     -0.31590972	      0.96493213	      0.75570705	     25.38891227	     -2.58756157	     -5.58309374	    -41.12751894	      6.16639121	      2.75946182	      3.58800127	      3.05786185	     20.53186343	    -16.99364978	     13.05963917	    -11.68513176	      0.12664933	      3.66495962	    -11.14148164
      5.90000000	     -7.17644497	     -3.58878454	    320.11660832	     -0.31145480	      0.96477522	      0.75997724	     25.77195541	     -2.47271411	     -5.05980808	    -39.60589354	      5.97708286	      2.92767775	      2.95109301	      2.88443345	     21.57581743	    -16.68856277	     13.20300423	    -11.52757689	      0.06238167	      3.63392685	    -11.18834559
      5.91000000	     -7.10495651	     -3.68379182	    321.31350887	     -0.30705766	      0.96459459	      0.76422796	     26.14738065	     -2.35758202	     -4.54727629	    -38.09722604	      5.73857058	      3.10736341	      2.32546133	      2.68999585	     22.60113251	    -16.37701166	     13.34863911	    -11.39805889	     -0.00392474	      3.60156174	    -11.20567192
      5.92000000	     -7.02565139	     -3.78120003	    322.47942167	     -0.30271041	      0.96440831	      0.76847767	     26.49935869	     -2.23773828	     -4.04044813	    -36.60068852	      5.47137252	      3.33138209	      1.69472600	      2.47363474	     23.60152095	    -16.05798222	     13.51089621	    -11.29140592	     -0.08681711	      3.56802451	    -11.19921510
      5.93000000	     -6.95701477	     -3.85899257	    323.63091391	     -0.29841991	      0.96418288	      0.77268428	     26.86177673	     -2.13074411	     -3.56616316	    -35.12258839	      5.16576252	      3.56776483	      1.10512652	      2.24858303	     24.59047371	    -15.75445567	     13.63391886	    -11.21314666	     -0.15728728	      3.52830183	    -11.18029112
      5.94000000	     -6.88249091	     -3.92935192	    324.74999602	     -0.29415180	      0.96393852	      0.77689554	     27.21128876	     -2.02695084	     -3.09945307	    -33.66776644	      4.86339810	      3.85672560	      0.51807623	      2.01142882	     25.54874289	    -15.44510205	     13.75882598	    -11.14420555	     -0.23356630	      3.48362321	    -11.13610247
      5.95000000	     -6.81333703	     -3.98344834	    325.84771341	     -0.28989681	      0.96366196	      0.78110166	     27.56083269	     -1.93772526	     -2.67656398	    -32.23542478	      4.57876011	      4.17276483	     -0.04113153	      1.76875118	     26.48753042	    -15.14821548	     13.84921023	    -11.07134871	     -0.29996626	      3.42989650	    -11.06464937
      5.96000000	     -6.72375627	     -4.03309949	    326.90056578	     -0.28560644	      0.96337946	      0.78536989	     27.87527776	     -1.85288965	     -2.24942632	    -30.82662530	      4.36010593	      4.64331302	     -0.62711598	      1.51564618	     27.36090025	    -14.82650255	     13.97719776	    -10.98872032	     -0.38092615	      3.36604088	    -10.96573324
      5.97000000	     -6.65694572	     -4.04886465	    327.96803456	     -0.28128358	      0.96302910	      0.78959638	     28.20235259	     -1.80512544	     -1.90122414	    -29.43345513	      4.17745154	      5.00403048	     -1.14714589	      1.27017885	     28.22925770	    -14.53857670	     14.05742589	    -10.89752881	     -0.42073777	      3.28805354	    -10.91824731
      5.98000000	     -6.57553201	     -4.06441660	    328.98248308	     -0.27690783	      0.96267947	      0.79389588	     28.48999511	     -1.75471355	     -1.56007950	    -28.05817161	      4.06794504	      5.54782416	     -1.69257718	      1.01198820	     29.03315975	    -14.22977206	     14.13638252	    -10.77370588	     -0.47378563	      3.20652027	    -10.79178560
      5.99000000	     -6.50190999	     -4.05823147	    330.01577260	     -0.27248179	      0.96227719	      0.79815745	     28.76240336	     -1.74007754	     -1.29457193	    -26.69475037	      4.00791580	      5.94505358	     -2.19767337	      0.76094150	     29.83692622	    -13.95028410	     14.21873490	    -10.65750460	     -0.50836786	      3.11230721	    -10.72994340
      6.00000000	     -6.41742977	     -4.05219590	    331.00086012	     -0.26799679	      0.96187290	      0.80248055	     28.99397156	     -1.72061249	     -1.03394697	    -25.34848810	      4.00832824	      6.50547402	     -2.72068829	      0.49927453	     30.58156805	    -13.65976651	     14.29121156	    -10.50294986	     -0.55429400	      3.01887059	    -10.59644563
      6.01000000	     -6.33480322	     -4.03176490	    331.99118042	     -0.26343372	      0.96143987	      0.80677772	     29.19553139	     -1.72773832	     -0.82272223	    -24.01446188	      4.05037846	      7.01421598	     -3.22574116	      0.24076904	     31.31664296	    -13.38012575	     14.35502776	    -10.34487958	     -0.59070679	      2.92045500	    -10.50189865
      6.02000000	     -6.24666186	     -4.00152119	    332.97283400	     -0.25878749	      0.96099381	      0.81108278	     29.35863716	     -1.75246244	     -0.64182865	    -22.70138911	      4.13861889	      7.53302014	     -3.72252265	     -0.01409031	     32.02448182	    -13.11616375	     14.39914989	    -10.17383134	     -0.62650705	      2.81681003	    -10.42123521
      6.03000000	     -6.14570449	     -3.97580722	    333.96431465	     -0.25404235	      0.96055084	      0.81538266	     29.46441070	     -1.79245237	     -0.51450982	    -21.41148421	      4.26352456	      7.95687276	     -4.22238229	     -0.27395825	     32.73212571	    -12.87450375	     14.45587183	    -10.01760801	     -0.67587403	      2.71697111	    -10.38062854
      6.04000000	     -6.03576811	     -3.94998024	    334.92061909	     -0.24919760	      0.96012312	      0.81972923	     29.52361253	     -1.82982641	     -0.38118688	    -20.15378194	      4.41110519	      8.53275554	     -4.73918191	     -0.54166593	     33.40618383	    -12.62434682	     14.48274239	     -9.81887757	     -0.73104551	      2.62248929	    -10.29963318
